<?xml version="1.0" encoding="utf-8"?>
<!-- Generator: Adobe Illustrator 27.0.0, SVG Export Plug-In . SVG Version: 6.00 Build 0)  -->
<svg version="1.1" id="Layer_1" xmlns="http://www.w3.org/2000/svg" xmlns:xlink="http://www.w3.org/1999/xlink" x="0px" y="0px"
	 viewBox="0 0 1920 1080" style="enable-background:new 0 0 1920 1080;" xml:space="preserve">
<style type="text/css">
	.st0{fill:#0F4C4B;}
	.st1{fill:#0D314F;}
	.st2{fill:#65CBE4;}
	.st3{fill:#FFFFFF;}
	.st4{fill:#13385E;}
	.st5{fill:#F2F2F3;}
	.st6{font-family:'Gotham-Black';}
	.st7{font-size:113.7663px;}
	.st8{font-size:50.687px;}
	.st9{fill:#FFFFFF;stroke:#000000;stroke-width:10;stroke-miterlimit:10;}
</style>
<g>
	<g>
		<g>
			<text transform="matrix(1 0 0 1 550.16 750.36)" class="st0 st6 st7">PREMIUM ELD</text>
			<g>
				<text transform="matrix(1 0 0 1 695.0565 819.9313)" class="st0 st6 st8">LOGISTIC COMPANY</text>
			</g>
		</g>
	</g>
	<path class="st0" d="M1026.2,493.6l9.1,3.6c28.8,11.3,61.6,4.5,83.5-17.4c54.3-54.3,68.2-119.2,13.9-173.6
		c-45.7-45.7-104.5-44.6-166.9,13L898,251.3h-91l34.1,34.1l79,79l-34,34h0c-15.8,15.8-15.8,41.5,0,57.3l28.5,28.5
		c-30,27.3-56.7,33.3-82,8c-31.6-31.6-22.7-59.3,19.4-101.5l41.6-41.6l-9.1-3.6c-28.8-11.3-61.6-4.5-83.5,17.4
		c-54.3,54.3-68.2,119.2-13.9,173.6c45.7,45.7,104.5,44.6,166.9-13l67.8,67.8h91l-34.1-34.1l-79-79l34-34h0
		c15.8-15.8,15.8-41.5,0-57.3l-28.5-28.5c30-27.3,56.7-33.3,82-8c31.6,31.6,22.7,59.3-19.4,101.5L1026.2,493.6z M942.5,420.9
		l17.1-17.1l17.9,17.9l-17.1,17.1L942.5,420.9z"/>
</g>
</svg>
